<?xml version="1.0" encoding="UTF-8"?>
<svg version="1.1" xmlns="http://www.w3.org/2000/svg" width="500" height="500">
<path d="M0 0 C165 0 330 0 500 0 C500 165 500 330 500 500 C335 500 170 500 0 500 C0 335 0 170 0 0 Z " fill="#FEFEFE" transform="translate(0,0)"/>
<path d="M0 0 C0 3.7023124 -1.32146723 6.41221508 -2.75 9.75 C-13.23807974 35.04989287 -14.60948447 63.54843057 -4.46533203 89.23706055 C-3.66573496 91.16849524 -2.84033215 93.08596515 -2 95 C-1.4740625 96.20527344 -0.948125 97.41054687 -0.40625 98.65234375 C11.49015864 124.04444237 33.33335332 142.051163 59.15625 152.24609375 C70.1977478 156.13053821 80.72900908 157.33437435 92.4152832 157.26074219 C94.43145943 157.25003209 96.44674142 157.26069412 98.46289062 157.2734375 C109.80808084 157.25111543 120.11872948 156.21601575 130.625 151.8125 C133.07184874 150.80323185 135.49851565 149.874624 138 149 C138.66 149.33 139.32 149.66 140 150 C122.5730096 174.99219554 99.15819348 191.3255478 69 197 C40.41451453 201.02322706 12.13391917 195.86893728 -11.375 178.5625 C-13.26466941 177.05993268 -15.14053382 175.53978718 -17 174 C-17.83789062 173.33742188 -18.67578125 172.67484375 -19.5390625 171.9921875 C-38.41839385 156.22944418 -51.09769296 131.23230033 -54 107 C-56.1195735 74.49051511 -49.53802684 47.56002559 -28.1328125 22.41796875 C-27.42898437 21.62003906 -26.72515625 20.82210937 -26 20 C-25.46117187 19.37738281 -24.92234375 18.75476563 -24.3671875 18.11328125 C-17.58984211 10.80805217 -8.56379363 4.97669517 0 0 Z " fill="#FDFEFE" transform="translate(196,104)"/>
<path d="M0 0 C0.495 0.99 0.495 0.99 1 2 C-0.15327195 4.33705374 -1.36377237 6.59721137 -2.625 8.875 C-13.76392937 29.93632869 -17.10742739 59.00800405 -10.42919922 81.96191406 C-5.73809134 97.13510045 0.86348061 110.66437131 11 123 C11.69867188 123.86367187 12.39734375 124.72734375 13.1171875 125.6171875 C27.49920012 142.52790563 47.60039622 153.02486369 69 158 C70.03253906 158.24363281 71.06507813 158.48726562 72.12890625 158.73828125 C91.45853698 162.6042074 112.53609576 159.92256123 130.6171875 152.40234375 C133.71230472 151.11926398 136.80991397 150.01946174 140 149 C137.72854909 155.55134263 133.24481535 160.62690309 129 166 C128.37996094 166.79019531 127.75992188 167.58039063 127.12109375 168.39453125 C110.33147081 188.52032117 84.12283759 201.1865858 58.30517578 203.80957031 C28.25555453 206.291958 0.66582327 198.25283124 -22.578125 178.84765625 C-42.53597099 161.4304563 -57.76901993 136.91017933 -60 110 C-61.37774068 78.07524833 -55.34970363 49.88568493 -33.55419922 25.37402344 C-23.98289709 14.948742 -13.04839379 5.74129327 0 0 Z M-26 20 C-26.62519531 20.54011719 -27.25039062 21.08023438 -27.89453125 21.63671875 C-44.77171131 37.32814845 -56.80545919 62.44934869 -58.20507812 85.35644531 C-58.30348143 88.99033871 -58.3291413 92.61482606 -58.3125 96.25 C-58.30686035 97.53543701 -58.3012207 98.82087402 -58.29541016 100.14526367 C-57.97637812 125.05661209 -49.27493757 147.15702494 -33 166 C-32.09701172 167.11955078 -32.09701172 167.11955078 -31.17578125 168.26171875 C-19.26632642 182.56804499 -2.39410836 192.03234048 15 198 C15.99902344 198.350625 16.99804688 198.70125 18.02734375 199.0625 C43.19810337 207.00071591 73.14819172 202.07879381 96.20629883 190.2109375 C112.5744024 181.4501471 127.04633629 169.49359105 136 153 C134.60396057 153.41597563 133.20818801 153.83284683 131.8125 154.25 C130.905 154.52070313 129.9975 154.79140625 129.0625 155.0703125 C126.93289738 155.71679901 124.80816954 156.37947432 122.6875 157.0546875 C121.57375 157.40789062 120.46 157.76109375 119.3125 158.125 C118.27738281 158.45757812 117.24226562 158.79015625 116.17578125 159.1328125 C108.52216871 161.22272884 100.87541395 161.21774147 92.99633789 161.24023438 C90.96652997 161.2498623 88.9377711 161.28091523 86.90820312 161.3125 C58.5717287 161.54402581 34.53288689 149.01846451 14.4375 129.8125 C-6.34596742 108.50212777 -15.41343168 80.73621138 -15.37084961 51.38964844 C-15.06277431 36.3390743 -10.63202143 22.82258973 -5 9 C-4.61070312 8.02675781 -4.22140625 7.05351563 -3.8203125 6.05078125 C-3.54960937 5.37402344 -3.27890625 4.69726562 -3 4 C-10.175803 4 -20.86288452 15.52417725 -26 20 Z " fill="#289FF5" transform="translate(200,100)"/>
<path d="M0 0 C4.186875 -0.103125 8.37375 -0.20625 12.6875 -0.3125 C13.99936279 -0.35802002 15.31122559 -0.40354004 16.6628418 -0.45043945 C26.25134535 -0.56521419 26.25134535 -0.56521419 29.296875 2.33203125 C31.39582596 5.62006681 31.71828989 7.16912059 31 11 C29 13.875 29 13.875 27 16 C27.825 16.70125 28.65 17.4025 29.5 18.125 C32 21 32 21 32.5625 24 C31.87642343 27.65907504 30.57265686 29.35167676 28 32 C25.28598706 33.35700647 23.15153684 33.1123861 20.1171875 33.09765625 C19.06644043 33.09515869 18.01569336 33.09266113 16.93310547 33.09008789 C15.59393066 33.08098389 14.25475586 33.07187988 12.875 33.0625 C8.62625 33.041875 4.3775 33.02125 0 33 C0 22.11 0 11.22 0 0 Z " fill="#09284F" transform="translate(66,324)"/>
<path d="M0 0 C1.9453125 -0.29296875 1.9453125 -0.29296875 4.125 -0.1875 C5.40375 -0.125625 6.6825 -0.06375 8 0 C7.6875 2.375 7.6875 2.375 7 5 C6.01 5.66 5.02 6.32 4 7 C4.33 7.66 4.66 8.32 5 9 C5.45890968 15.31000814 5.45890968 15.31000814 3.8984375 17.65625 C1.16861718 19.5884685 -1.32629548 19.68581866 -4.625 20.0625 C-6.75857435 20.30976855 -8.88834269 20.60733645 -11 21 C-11.33 21.66 -11.66 22.32 -12 23 C-10.57107422 22.94779297 -10.57107422 22.94779297 -9.11328125 22.89453125 C-7.85902344 22.86746094 -6.60476562 22.84039062 -5.3125 22.8125 C-3.45044922 22.76029297 -3.45044922 22.76029297 -1.55078125 22.70703125 C2.49607131 23.04092998 5.11242948 24.11242948 8 27 C8.69447065 33.94470655 8.69447065 33.94470655 6.203125 37.73046875 C1.41600958 41.12231516 -2.90174448 40.69353988 -8.625 40.5625 C-9.67429688 40.57345703 -10.72359375 40.58441406 -11.8046875 40.59570312 C-17.59831915 40.53999513 -17.59831915 40.53999513 -20 40 C-22.14493071 37.76354218 -22.92658531 36.5873175 -23.3125 33.5 C-23 31 -23 31 -22 29.0625 C-20.66656257 26.3122853 -20.8629965 24.01407708 -21 21 C-19.68 20.34 -18.36 19.68 -17 19 C-17 18.34 -17 17.68 -17 17 C-17.66 17 -18.32 17 -19 17 C-21.16551116 13.75173326 -21.55156953 12.76905843 -21 9 C-18.64909666 5.81796921 -17.32749206 5.06571153 -13.3984375 4.27734375 C-12.0588604 4.14681409 -10.71746187 4.03394123 -9.375 3.9375 C-6.8550264 3.74420657 -4.50043867 3.44211503 -2 3 C-1.34 2.01 -0.68 1.02 0 0 Z " fill="#0B2A51" transform="translate(158,327)"/>
<path d="M0 0 C3.3 0 6.6 0 10 0 C10 3.63 10 7.26 10 11 C10.99 10.34 11.98 9.68 13 9 C17.47074966 8.56734681 19.68467717 8.36579299 23.73828125 10.3203125 C27.31856363 14.56223601 26.53340649 18.8938673 26.3125 24.25 C26.28994141 25.28125 26.26738281 26.3125 26.24414062 27.375 C26.18527163 29.91814065 26.10310065 32.45833113 26 35 C23.03 35 20.06 35 17 35 C16.67 29.39 16.34 23.78 16 18 C14.35 17.67 12.7 17.34 11 17 C10.67 22.94 10.34 28.88 10 35 C6.7 35 3.4 35 0 35 C0 23.45 0 11.9 0 0 Z " fill="#0C2A51" transform="translate(169,322)"/>
<path d="M0 0 C8.91 0 17.82 0 27 0 C27 2.64 27 5.28 27 8 C21.72 8 16.44 8 11 8 C11 9.65 11 11.3 11 13 C15.62 13 20.24 13 25 13 C25 15.64 25 18.28 25 21 C20.38 21 15.76 21 11 21 C11 24.96 11 28.92 11 33 C7.37 33 3.74 33 0 33 C0 22.11 0 11.22 0 0 Z " fill="#0F2D54" transform="translate(237,324)"/>
<path d="M0 0 C1.1034375 -0.00773437 2.206875 -0.01546875 3.34375 -0.0234375 C7.78210336 0.53684968 10.37679013 2.25179013 13.5 5.375 C13.88796304 9.01215353 14.00785545 12.63094045 14.15625 16.28515625 C14.2696875 17.30480469 14.383125 18.32445312 14.5 19.375 C15.16 19.705 15.82 20.035 16.5 20.375 C16.5 22.355 16.5 24.335 16.5 26.375 C14.91676312 26.402193 13.33338938 26.42148306 11.75 26.4375 C10.42742187 26.45490234 10.42742187 26.45490234 9.078125 26.47265625 C6.5 26.375 6.5 26.375 4.296875 25.80859375 C2.41327065 25.14980505 2.41327065 25.14980505 0.5 26.375 C-1.30843663 26.52216542 -3.12331566 26.5960887 -4.9375 26.625 C-6.38962891 26.66367187 -6.38962891 26.66367187 -7.87109375 26.703125 C-10.5 26.375 -10.5 26.375 -12.31640625 25.10546875 C-14.0058757 22.63538635 -14.02963207 20.2434923 -13.921875 17.3125 C-13.5 15.375 -13.5 15.375 -11.25 12.9375 C-6.22798769 10.08408391 -2.19032481 10.28016125 3.5 10.375 C3.17 9.385 2.84 8.395 2.5 7.375 C0.83388095 7.332279 -0.83382885 7.33436168 -2.5 7.375 C-2.83 7.705 -3.16 8.035 -3.5 8.375 C-5.01928038 8.44679964 -6.54167482 8.45892007 -8.0625 8.4375 C-8.88878906 8.42847656 -9.71507812 8.41945313 -10.56640625 8.41015625 C-11.20449219 8.39855469 -11.84257812 8.38695312 -12.5 8.375 C-12.3125 6.0625 -12.3125 6.0625 -11.5 3.375 C-7.68015839 0.44575898 -4.75496302 -0.03332918 0 0 Z " fill="#0D2B52" transform="translate(326.5,330.625)"/>
<path d="M0 0 C3.6016791 3.32462687 3.6016791 3.32462687 4.4375 6.25 C4.4375 8.56 4.4375 10.87 4.4375 13.25 C-1.8325 13.25 -8.1025 13.25 -14.5625 13.25 C-13.9025 14.57 -13.2425 15.89 -12.5625 17.25 C-9.64597826 17.41681109 -9.64597826 17.41681109 -6.5625 17.25 C-5.9025 16.59 -5.2425 15.93 -4.5625 15.25 C-2.3984375 15.0546875 -2.3984375 15.0546875 0.0625 15.125 C1.28839844 15.15207031 1.28839844 15.15207031 2.5390625 15.1796875 C3.47878906 15.21449219 3.47878906 15.21449219 4.4375 15.25 C3.9422783 18.91464055 3.4166794 20.95832354 0.4375 23.25 C-3.00915742 24.39888581 -5.80601905 24.4539347 -9.4375 24.5 C-10.65179688 24.52578125 -11.86609375 24.5515625 -13.1171875 24.578125 C-16.82299802 24.22519067 -18.62724157 23.48714291 -21.5625 21.25 C-24.59919041 16.74732111 -25.50431834 12.55169648 -24.5625 7.25 C-22.80142199 3.6601102 -21.21709617 1.72897281 -18 -0.625 C-11.77438087 -2.66247535 -5.93188209 -2.91390699 0 0 Z " fill="#0F2D54" transform="translate(431.5625,332.75)"/>
<path d="M0 0 C2.64 0 5.28 0 8 0 C8.33 0.99 8.66 1.98 9 3 C9.495 2.505 9.99 2.01 10.5 1.5 C13.87766334 -0.52659801 17.2069272 -0.89705819 21 0 C23.734375 1.32421875 23.734375 1.32421875 26 4 C26.62472062 7.7648548 26.46934482 11.44711646 26.3125 15.25 C26.28994141 16.28125 26.26738281 17.3125 26.24414062 18.375 C26.18527163 20.91814065 26.10310065 23.45833113 26 26 C23.03 26 20.06 26 17 26 C16.67 20.39 16.34 14.78 16 9 C14.35 8.67 12.7 8.34 11 8 C10.67 13.94 10.34 19.88 10 26 C6.7 26 3.4 26 0 26 C0 17.42 0 8.84 0 0 Z " fill="#0C2A51" transform="translate(283,331)"/>
<path d="M0 0 C3.59787209 1.0183921 4.91867849 2.56947915 7.09765625 5.59375 C7.70217752 9.21938957 7.57004185 12.74363994 7.41015625 16.40625 C7.38759766 17.38529297 7.36503906 18.36433594 7.34179688 19.37304688 C7.28307589 21.7806073 7.19340051 24.18737754 7.09765625 26.59375 C4.12765625 26.59375 1.15765625 26.59375 -1.90234375 26.59375 C-2.23234375 20.98375 -2.56234375 15.37375 -2.90234375 9.59375 C-4.55234375 9.26375 -6.20234375 8.93375 -7.90234375 8.59375 C-10.02159979 10.71300604 -9.32065392 15.2133593 -9.46484375 18.15625 C-9.50802734 18.96255859 -9.55121094 19.76886719 -9.59570312 20.59960938 C-9.70209637 22.59743805 -9.80275263 24.5955707 -9.90234375 26.59375 C-12.87234375 26.59375 -15.84234375 26.59375 -18.90234375 26.59375 C-18.90234375 18.34375 -18.90234375 10.09375 -18.90234375 1.59375 C-16.59234375 1.59375 -14.28234375 1.59375 -11.90234375 1.59375 C-11.24234375 2.25375 -10.58234375 2.91375 -9.90234375 3.59375 C-9.40734375 3.09875 -8.91234375 2.60375 -8.40234375 2.09375 C-5.57415419 0.39683627 -3.26856886 0.15595557 0 0 Z " fill="#07264E" transform="translate(364.90234375,330.40625)"/>
<path d="M0 0 C3.31201467 1.34887022 5.48070079 3.48070079 8 6 C8.125 8.625 8.125 8.625 8 11 C5.03 11 2.06 11 -1 11 C-1.33 10.01 -1.66 9.02 -2 8 C-4.90073181 7.32198966 -4.90073181 7.32198966 -8 7 C-10.15705515 8.7564331 -10.15705515 8.7564331 -10.265625 10.875 C-10.26046875 11.57625 -10.2553125 12.2775 -10.25 13 C-10.25515625 13.70125 -10.2603125 14.4025 -10.265625 15.125 C-10.15705515 17.2435669 -10.15705515 17.2435669 -8 19 C-5.5 19.41666667 -5.5 19.41666667 -3 19 C-2.34 18.01 -1.68 17.02 -1 16 C1.1640625 15.70703125 1.1640625 15.70703125 3.625 15.8125 C4.44226563 15.83957031 5.25953125 15.86664063 6.1015625 15.89453125 C6.72804688 15.92933594 7.35453125 15.96414063 8 16 C7.82814891 19.78072399 7.40585533 21.55935707 4.8125 24.375 C-0.33553598 27.3633721 -7.3178945 26.90382029 -13 26 C-16.20099852 23.89864909 -17.87095785 22.19356322 -20 19 C-20.77520227 13.15074651 -20.48182551 7.92258089 -17 3 C-11.61875934 -0.9187432 -6.43555121 -0.80988669 0 0 Z " fill="#0D2B52" transform="translate(396,331)"/>
<path d="M0 0 C2.31 0 4.62 0 7 0 C7 2.31 7 4.62 7 7 C8.98 7 10.96 7 13 7 C13 9.31 13 11.62 13 14 C11.02 14 9.04 14 7 14 C7.33 17.96 7.66 21.92 8 26 C9.32 26.33 10.64 26.66 12 27 C12 28.98 12 30.96 12 33 C10.06372231 33.10807131 8.12572244 33.1856225 6.1875 33.25 C5.10855469 33.29640625 4.02960938 33.3428125 2.91796875 33.390625 C0 33 0 33 -1.875 31.46875 C-3.42602029 28.06512214 -3.32234976 24.90823196 -3.1875 21.25 C-3.17396484 20.55261719 -3.16042969 19.85523438 -3.14648438 19.13671875 C-3.1112945 17.42414459 -3.05749155 15.71197059 -3 14 C-3.99 14 -4.98 14 -6 14 C-6 11.69 -6 9.38 -6 7 C-4.68 7 -3.36 7 -2 7 C-1.855625 6.21625 -1.71125 5.4325 -1.5625 4.625 C-1 2 -1 2 0 0 Z " fill="#102E54" transform="translate(205,324)"/>
<path d="M0 0 C2.64 0 5.28 0 8 0 C8.33 0.66 8.66 1.32 9 2 C9.99 1.34 10.98 0.68 12 0 C15.1875 -0.125 15.1875 -0.125 18 0 C18 2.64 18 5.28 18 8 C15.69 8.66 13.38 9.32 11 10 C10.67 15.28 10.34 20.56 10 26 C6.7 26 3.4 26 0 26 C0 17.42 0 8.84 0 0 Z " fill="#0E2C53" transform="translate(102,331)"/>
<path d="M0 0 C3.3 0 6.6 0 10 0 C10 8.58 10 17.16 10 26 C6.7 26 3.4 26 0 26 C0 17.42 0 8.84 0 0 Z " fill="#123055" transform="translate(268,331)"/>
<path d="M0 0 C0.33 0 0.66 0 1 0 C1.07424001 4.91126203 1.12864411 9.82219634 1.16479492 14.73388672 C1.17986754 16.40419201 1.2003292 18.07445781 1.22631836 19.74462891 C1.26276973 22.14756013 1.27974131 24.54996744 1.29296875 26.953125 C1.30845261 27.69806213 1.32393646 28.44299927 1.33988953 29.21051025 C1.34125473 33.43052156 1.02302019 35.94559898 -2 39 C-2.061875 37.906875 -2.12375 36.81375 -2.1875 35.6875 C-2.60644994 31.95722728 -2.60644994 31.95722728 -5.09375 30.3125 C-8.60932845 28.72481941 -11.46784846 28.49215661 -15.3125 28.3125 C-16.56675781 28.24675781 -17.82101563 28.18101562 -19.11328125 28.11328125 C-20.06589844 28.07589844 -21.01851562 28.03851563 -22 28 C-21.505 26.515 -21.505 26.515 -21 25 C-20.08476562 24.87882812 -19.16953125 24.75765625 -18.2265625 24.6328125 C-17.03804687 24.46523438 -15.84953125 24.29765625 -14.625 24.125 C-13.44164062 23.96257812 -12.25828125 23.80015625 -11.0390625 23.6328125 C-7.90433341 23.2697415 -7.90433341 23.2697415 -6 21 C-5.79853598 17.306493 -5.82646811 14.52059568 -7 11 C-5.68 10.67 -4.36 10.34 -3 10 C-2.67 8.35 -2.34 6.7 -2 5 C-1.67 5 -1.34 5 -1 5 C-0.67 3.35 -0.34 1.7 0 0 Z " fill="#EEF0F3" transform="translate(168,322)"/>
<path d="M0 0 C2.97 0 5.94 0 9 0 C9 8.25 9 16.5 9 25 C6.03 25 3.06 25 0 25 C0 16.75 0 8.5 0 0 Z " fill="#06254D" transform="translate(123,332)"/>
<path d="M0 0 C0.66 0 1.32 0 2 0 C2 1.65 2 3.3 2 5 C2.66 5.33 3.32 5.66 4 6 C3.67 6.33 3.34 6.66 3 7 C2.63239269 9.32817964 2.29758419 11.6618385 2 14 C1.01 14 0.02 14 -1 14 C-1.33 15.32 -1.66 16.64 -2 18 C-4.31 18 -6.62 18 -9 18 C-9.96661363 14.87819599 -9.98988909 12.47916205 -9.5625 9.25 C-9.46066406 8.45078125 -9.35882813 7.6515625 -9.25390625 6.828125 C-9.17011719 6.22484375 -9.08632812 5.6215625 -9 5 C-6.69 4.34 -4.38 3.68 -2 3 C-1.67 3.33 -1.34 3.66 -1 4 C-0.67 2.68 -0.34 1.36 0 0 Z " fill="#BBB3B3" transform="translate(191,375)"/>
<path d="M0 0 C1.2375 0.1546875 1.2375 0.1546875 2.5 0.3125 C3.16 1.3025 3.82 2.2925 4.5 3.3125 C5.16 2.3225 5.82 1.3325 6.5 0.3125 C9.125 0.125 9.125 0.125 11.5 0.3125 C11.83 0.9725 12.16 1.6325 12.5 2.3125 C10.85 2.3125 9.2 2.3125 7.5 2.3125 C7.5 2.9725 7.5 3.6325 7.5 4.3125 C9.15 4.6425 10.8 4.9725 12.5 5.3125 C12.17 6.9625 11.84 8.6125 11.5 10.3125 C6.75 10.4375 6.75 10.4375 4.5 9.3125 C2.7675 9.5909375 2.7675 9.5909375 1 9.875 C-0.155 10.019375 -1.31 10.16375 -2.5 10.3125 C-4.5 8.3125 -4.5 8.3125 -4.75 5.3125 C-4.43541678 1.53750135 -3.81908518 0.47738565 0 0 Z " fill="#ECEAEA" transform="translate(385.5,378.6875)"/>
<path d="M0 0 C0.66 0.66 1.32 1.32 2 2 C1.7578125 4.703125 1.7578125 4.703125 1.125 8.25 C-1.76646162 26.71404779 -0.36794554 45.14263451 5 63 C4.01 63.495 4.01 63.495 3 64 C-4.0920121 43.27479958 -5.57047173 21.28715983 0 0 Z " fill="#30A3F5" transform="translate(187,128)"/>
<path d="M0 0 C2.64 0 5.28 0 8 0 C8.34274406 1.66475686 8.67364302 3.33195323 9 5 C9.3403125 6.5778125 9.3403125 6.5778125 9.6875 8.1875 C9.790625 9.115625 9.89375 10.04375 10 11 C8 13 8 13 6.0546875 13.1953125 C4.03645833 13.13020833 2.01822917 13.06510417 0 13 C0 8.71 0 4.42 0 0 Z " fill="#4E3939" transform="translate(107,376)"/>
<path d="M0 0 C-15.54883572 10.36589048 -41.51786319 6.45056236 -59 4 C-55.74681132 1.83120755 -55.51410358 1.78794445 -51.9453125 2.36328125 C-46.9014249 3.05312204 -41.9617343 3.19222613 -36.875 3.1875 C-35.96210205 3.18669434 -35.0492041 3.18588867 -34.10864258 3.18505859 C-24.66643852 3.10061275 -15.40606928 2.24639183 -6.25 -0.1875 C-3 -1 -3 -1 0 0 Z " fill="#30A3F5" transform="translate(281,298)"/>
<path d="M0 0 C0.33 0.66 0.66 1.32 1 2 C1.84304687 1.97679687 2.68609375 1.95359375 3.5546875 1.9296875 C5.19824219 1.90261719 5.19824219 1.90261719 6.875 1.875 C8.51082031 1.84019531 8.51082031 1.84019531 10.1796875 1.8046875 C13 2 13 2 15 4 C15.26991906 6.68839385 15.08737357 9.29141936 15 12 C14.34 12 13.68 12 13 12 C13 9.36 13 6.72 13 4 C11.68 4.33 10.36 4.66 9 5 C8.67 7.31 8.34 9.62 8 12 C5.36 12 2.72 12 0 12 C0 9.03 0 6.06 0 3 C-0.66 2.67 -1.32 2.34 -2 2 C-1.34 2 -0.68 2 0 2 C0 1.34 0 0.68 0 0 Z " fill="#A59B9B" transform="translate(204,377)"/>
<path d="M0 0 C0 3 0 3 -1 5 C-1.45079626 9.26446708 -1.45079626 9.26446708 0.5 12.875 C0.995 13.24625 1.49 13.6175 2 14 C1.67 14.66 1.34 15.32 1 16 C0.46375 15.484375 -0.0725 14.96875 -0.625 14.4375 C-2.96582997 12.72161188 -2.96582997 12.72161188 -6 13.125 C-8.97818674 13.9936378 -10.69663797 14.96241051 -13 17 C-12.67 16.29875 -12.34 15.5975 -12 14.875 C-10.87067242 11.62818321 -10.64410823 9.41656102 -11 6 C-12.38885248 3.18219466 -12.38885248 3.18219466 -14 1 C-13.443125 1.309375 -12.88625 1.61875 -12.3125 1.9375 C-9.72403904 3.12679288 -7.85946249 3.86051402 -5 4 C-2.18900586 2.1687189 -2.18900586 2.1687189 0 0 Z " fill="#CACD24" transform="translate(241,186)"/>
<path d="M0 0 C1.77706209 2.66559313 2.87548273 5.0280615 4 8 C6.64 8.33 9.28 8.66 12 9 C11.67 9.66 11.34 10.32 11 11 C10.030625 11.185625 9.06125 11.37125 8.0625 11.5625 C4.86163291 12.63756199 4.86163291 12.63756199 4.16015625 15.12890625 C3.6695493 17.41721166 3.27726788 19.67668641 3 22 C1.9341138 19.93322066 1.01547982 18.05417938 0.375 15.8125 C-0.82980519 13.83047272 -0.82980519 13.83047272 -2.90625 13.52734375 C-4.92934755 13.27445656 -6.96538823 13.13126528 -9 13 C-8.67 12.34 -8.34 11.68 -8 11 C-7.030625 10.814375 -6.06125 10.62875 -5.0625 10.4375 C-1.86163291 9.36243801 -1.86163291 9.36243801 -1.16015625 6.87109375 C-0.6695493 4.58278834 -0.27726788 2.32331359 0 0 Z " fill="#B4B635" transform="translate(262,209)"/>
<path d="M0 0 C-0.33 0.94875 -0.66 1.8975 -1 2.875 C-2.10159191 5.77062452 -2.10159191 5.77062452 -2 8 C-1.34 8.33 -0.68 8.66 0 9 C-0.33 10.65 -0.66 12.3 -1 14 C-3.31 14 -5.62 14 -8 14 C-8.96661363 10.87819599 -8.98988909 8.47916205 -8.5625 5.25 C-8.46066406 4.45078125 -8.35882813 3.6515625 -8.25390625 2.828125 C-8.17011719 2.22484375 -8.08632812 1.6215625 -8 1 C-2.25 -1.125 -2.25 -1.125 0 0 Z " fill="#736464" transform="translate(151,379)"/>
<path d="M0 0 C2 2 2 2 2.6875 5 C3.120625 5.99 3.55375 6.98 4 8 C7.52451159 9.46022435 7.52451159 9.46022435 11 10 C10.401875 10.28875 9.80375 10.5775 9.1875 10.875 C6.80672208 12.04742026 6.80672208 12.04742026 4 14 C3.42251197 15.96361864 3.42251197 15.96361864 3.3125 18.125 C3.1578125 20.043125 3.1578125 20.043125 3 22 C2.34 22 1.68 22 1 22 C0.34 19.36 -0.32 16.72 -1 14 C-3.64 13.34 -6.28 12.68 -9 12 C-6.66785852 10.79371992 -4.50357861 9.8345262 -2 9 C-1.19436362 6.89415562 -1.19436362 6.89415562 -0.8125 4.4375 C-0.57466797 3.19806641 -0.57466797 3.19806641 -0.33203125 1.93359375 C-0.22246094 1.29550781 -0.11289063 0.65742188 0 0 Z " fill="#B7B938" transform="translate(237,132)"/>
<path d="M0 0 C1.33333333 2 2.66666667 4 4 6 C5.96361864 6.57748803 5.96361864 6.57748803 8.125 6.6875 C10.043125 6.8421875 10.043125 6.8421875 12 7 C10.03617993 8.50559539 8.21736634 9.89131683 6 11 C5.53348793 13.12576782 5.53348793 13.12576782 5.375 15.5625 C5.30023438 16.38878906 5.22546875 17.21507813 5.1484375 18.06640625 C5.09945313 18.70449219 5.05046875 19.34257813 5 20 C3 18 3 18 1.875 15.375 C0.29118747 12.82027836 0.29118747 12.82027836 -1.97265625 12.67578125 C-3.98464726 12.68642671 -5.99470596 12.83563164 -8 13 C-7 11 -7 11 -3.9375 9.875 C-2.4834375 9.441875 -2.4834375 9.441875 -1 9 C-0.67 6.03 -0.34 3.06 0 0 Z " fill="#BFC22E" transform="translate(348,64)"/>
<path d="M0 0 C2 3 2 3 2.625 5.125 C3.81771152 7.17009856 3.81771152 7.17009856 5.90625 7.4765625 C7.92967196 7.72592788 9.96549985 7.86874193 12 8 C11.34 8.66 10.68 9.32 10 10 C8.68 10 7.36 10 6 10 C5.34 13.3 4.68 16.6 4 20 C2 18 2 18 1.375 15.9375 C0.19433841 13.82958062 0.19433841 13.82958062 -1.90625 13.51953125 C-3.92999126 13.27368944 -5.96561064 13.13125093 -8 13 C-6 11 -6 11 -3.4375 9.875 C-0.86650095 8.2858908 -0.86650095 8.2858908 -0.453125 6.02734375 C-0.21321223 4.02689459 -0.09896813 2.01235193 0 0 Z " fill="#B7B931" transform="translate(288,124)"/>
<path d="M0 0 C0.639375 0.804375 1.27875 1.60875 1.9375 2.4375 C3.40603502 4.2750504 3.40603502 4.2750504 5 6 C7.67058851 6.14115161 10.32432238 6.04247107 13 6 C11.7934375 6.804375 11.7934375 6.804375 10.5625 7.625 C7.47795015 10.48385108 7.34167466 11.89990409 7 16 C6.68325425 17.33737094 6.35729936 18.67288808 6 20 C5.01 18.02 4.02 16.04 3 14 C0.03 14 -2.94 14 -6 14 C-4 12 -2 10 0 8 C0.07148199 6.64756083 0.08399454 5.29165633 0.0625 3.9375 C0.041875 2.638125 0.02125 1.33875 0 0 Z " fill="#BBBE36" transform="translate(268,75)"/>
<path d="M0 0 C1.0658862 2.06677934 1.98452018 3.94582062 2.625 6.1875 C3.82980519 8.16952728 3.82980519 8.16952728 5.90625 8.47265625 C7.92934755 8.72554344 9.96538823 8.86873472 12 9 C9.01353231 10.99097846 6.40312738 11.94124926 3 13 C3 15.64 3 18.28 3 21 C2.71125 20.401875 2.4225 19.80375 2.125 19.1875 C0.95257974 16.80672208 0.95257974 16.80672208 -1 14 C-2.96361864 13.42251197 -2.96361864 13.42251197 -5.125 13.3125 C-6.40375 13.209375 -7.6825 13.10625 -9 13 C-7 11 -7 11 -4.5 10.4375 C-1.83631619 9.26394648 -1.83631619 9.26394648 -1.23046875 6.87109375 C-0.73325994 4.58536406 -0.31940637 2.31688801 0 0 Z " fill="#B1B32E" transform="translate(338,171)"/>
<path d="M0 0 C1 3 1 3 0.75 5.875 C0.70778575 9.23868797 0.70778575 9.23868797 3.5 11.875 C4.7375 12.926875 4.7375 12.926875 6 14 C4.14375 13.814375 4.14375 13.814375 2.25 13.625 C0.05978869 13.52770282 0.05978869 13.52770282 -2 14 C-4.56680314 16.84730711 -4.56680314 16.84730711 -6 20 C-7 17 -7 17 -6.75 13.5625 C-6.61456689 9.83500737 -6.61456689 9.83500737 -9.5 7.5625 C-10.325 7.046875 -11.15 6.53125 -12 6 C-10.7625 6.12375 -9.525 6.2475 -8.25 6.375 C-6.05978869 6.47229718 -6.05978869 6.47229718 -4 6 C-1.43319686 3.15269289 -1.43319686 3.15269289 0 0 Z " fill="#B9BB2F" transform="translate(355,127)"/>
<path d="M0 0 C1 2 1 2 0.8125 5.875 C0.74588216 9.20589183 0.80681056 9.7585132 3 12.5 C3.66 12.995 4.32 13.49 5 14 C4.39671875 13.89300781 3.7934375 13.78601563 3.171875 13.67578125 C-1.8808034 12.79093221 -1.8808034 12.79093221 -6.5625 14.4375 C-7.2740625 15.2109375 -7.2740625 15.2109375 -8 16 C-7.9175 14.948125 -7.835 13.89625 -7.75 12.8125 C-8.03525487 8.46236331 -9.02449969 7.0684847 -12 4 C-11.07767578 4.06960937 -11.07767578 4.06960937 -10.13671875 4.140625 C-7.70254825 4.24932799 -5.42063598 4.29184973 -3 4 C-0.87644433 2.17728073 -0.87644433 2.17728073 0 0 Z " fill="#BEC12A" transform="translate(298,172)"/>
<path d="M0 0 C0.33 0 0.66 0 1 0 C1 1.65 1 3.3 1 5 C2.98 4.67 4.96 4.34 7 4 C9 7 9 7 8.6875 10.125 C8 13 8 13 7 14 C4.69 14 2.38 14 0 14 C0 9.38 0 4.76 0 0 Z " fill="#432E2E" transform="translate(158,375)"/>
<path d="M0 0 C2.5 0.25 2.5 0.25 4.5 2.25 C4.75 5.25 4.75 5.25 4.5 8.25 C2.5 10.25 2.5 10.25 0 10.5 C-2.5 10.25 -2.5 10.25 -4.5 8.25 C-4.75 5.25 -4.75 5.25 -4.5 2.25 C-2.5 0.25 -2.5 0.25 0 0 Z " fill="#523E3E" transform="translate(292.5,378.75)"/>
<path d="M0 0 C2.5 0.25 2.5 0.25 4.5 2.25 C4.75 5.25 4.75 5.25 4.5 8.25 C2.5 10.25 2.5 10.25 0 10.5 C-2.5 10.25 -2.5 10.25 -4.5 8.25 C-4.75 5.25 -4.75 5.25 -4.5 2.25 C-2.5 0.25 -2.5 0.25 0 0 Z " fill="#523E3E" transform="translate(266.5,378.75)"/>
<path d="M0 0 C1.45792884 -0.05399736 2.91642712 -0.09279177 4.375 -0.125 C5.18710938 -0.14820313 5.99921875 -0.17140625 6.8359375 -0.1953125 C9 0 9 0 11 2 C10.67 3.32 10.34 4.64 10 6 C6.7 6 3.4 6 0 6 C0 4.02 0 2.04 0 0 Z " fill="#E3E6EB" transform="translate(76,343)"/>
<path d="M0 0 C1.51400391 0.01740234 1.51400391 0.01740234 3.05859375 0.03515625 C4.07050781 0.04417969 5.08242187 0.05320312 6.125 0.0625 C7.29869141 0.07990234 7.29869141 0.07990234 8.49609375 0.09765625 C9.05859375 2.03515625 9.05859375 2.03515625 9.49609375 4.09765625 C8.49609375 5.09765625 8.49609375 5.09765625 5.9921875 5.1953125 C4.47818359 5.17791016 4.47818359 5.17791016 2.93359375 5.16015625 C1.92167969 5.15113281 0.90976563 5.14210938 -0.1328125 5.1328125 C-0.91527344 5.12121094 -1.69773438 5.10960937 -2.50390625 5.09765625 C-3.06640625 3.16015625 -3.06640625 3.16015625 -3.50390625 1.09765625 C-2.50390625 0.09765625 -2.50390625 0.09765625 0 0 Z " fill="#E7EAEE" transform="translate(147.50390625,356.90234375)"/>
<path d="M0 0 C2.4375 0.1875 2.4375 0.1875 3.4375 1.1875 C3.47813832 2.85367115 3.480221 4.52138095 3.4375 6.1875 C1.4575 6.1875 -0.5225 6.1875 -2.5625 6.1875 C-2.2325 6.8475 -1.9025 7.5075 -1.5625 8.1875 C0.0875 7.8575 1.7375 7.5275 3.4375 7.1875 C3.1075 8.1775 2.7775 9.1675 2.4375 10.1875 C0.0625 10.3125 0.0625 10.3125 -2.5625 10.1875 C-4.5625 8.1875 -4.5625 8.1875 -4.8125 5.1875 C-4.49521834 1.38012011 -3.88988006 0.28462537 0 0 Z " fill="#716161" transform="translate(385.5625,378.8125)"/>
<path d="M0 0 C2.97 0 5.94 0 9 0 C9.38218767 1.65614657 9.71395102 3.32457024 10 5 C9 6 9 6 6.93359375 6.09765625 C6.10988281 6.08605469 5.28617187 6.07445312 4.4375 6.0625 C3.61121094 6.05347656 2.78492187 6.04445313 1.93359375 6.03515625 C1.29550781 6.02355469 0.65742187 6.01195312 0 6 C0 4.02 0 2.04 0 0 Z " fill="#E5E8EC" transform="translate(76,331)"/>
<path d="M0 0 C4.70588235 0.70588235 4.70588235 0.70588235 6 2 C6.45459858 4.65463121 6.70243238 7.32189138 7 10 C4.36 10 1.72 10 -1 10 C-1.33 8.68 -1.66 7.36 -2 6 C-0.35 4.68 1.3 3.36 3 2 C1.68 1.67 0.36 1.34 -1 1 C-0.67 0.67 -0.34 0.34 0 0 Z " fill="#746464" transform="translate(351,379)"/>
<path d="M0 0 C2.625 0.375 2.625 0.375 5 1 C5.33 2.65 5.66 4.3 6 6 C4.02 6 2.04 6 0 6 C0.33 6.66 0.66 7.32 1 8 C2.65 8 4.3 8 6 8 C5.67 8.66 5.34 9.32 5 10 C3.02 10 1.04 10 -1 10 C-2.38125018 7.23749964 -2.19079306 5.05268901 -2 2 C-1.34 1.34 -0.68 0.68 0 0 Z " fill="#564343" transform="translate(224,379)"/>
<path d="M0 0 C0.66 0.33 1.32 0.66 2 1 C1.10861328 1.82177734 1.10861328 1.82177734 0.19921875 2.66015625 C-7.23863209 9.77411934 -13.10598759 17.59598992 -19 26 C-19.66 25.67 -20.32 25.34 -21 25 C-14.92742085 15.49242659 -8.20870534 7.70868268 0 0 Z " fill="#1898F4" transform="translate(176,116)"/>
<path d="M0 0 C2.97 0 5.94 0 9 0 C9 1.98 9 3.96 9 6 C6.03 6 3.06 6 0 6 C0 4.02 0 2.04 0 0 Z " fill="#06254D" transform="translate(268,322)"/>
<path d="M0 0 C2.97 0 5.94 0 9 0 C9 1.98 9 3.96 9 6 C6.03 6 3.06 6 0 6 C0 4.02 0 2.04 0 0 Z " fill="#06254D" transform="translate(123,322)"/>
<path d="M0 0 C6.41688675 -0.10349817 12.62694402 0.25492456 19 1 C19 1.33 19 1.66 19 2 C18.37351562 2.04898437 17.74703125 2.09796875 17.1015625 2.1484375 C15.87566406 2.26058594 15.87566406 2.26058594 14.625 2.375 C13.81289063 2.44460938 13.00078125 2.51421875 12.1640625 2.5859375 C9.79665809 2.82892588 9.79665809 2.82892588 8 5 C5 5.25 5 5.25 2 5 C1.34 4.34 0.68 3.68 0 3 C0 2.01 0 1.02 0 0 Z " fill="#EDEFF2" transform="translate(417,346)"/>
<path d="M0 0 C3.4375 0.8125 3.4375 0.8125 7 2 C7.33 2.99 7.66 3.98 8 5 C7.67 5.66 7.34 6.32 7 7 C4.69 7 2.38 7 0 7 C-0.93423645 3.98968256 -1.04449911 3.13349732 0 0 Z " fill="#7F7171" transform="translate(182,386)"/>
<path d="M0 0 C-7.61111056 5.0740737 -17.20561351 5.64770672 -26 4 C-26 3.67 -26 3.34 -26 3 C-25.01 2.87882812 -24.02 2.75765625 -23 2.6328125 C-14.55157956 1.62602091 -14.55157956 1.62602091 -6.25 -0.1875 C-3 -1 -3 -1 0 0 Z " fill="#57B4F7" transform="translate(281,298)"/>
<path d="M0 0 C1.04449911 3.13349732 0.93423645 3.98968256 0 7 C-1.65 7.33 -3.3 7.66 -5 8 C-5.33 6.02 -5.66 4.04 -6 2 C-4.02 1.34 -2.04 0.68 0 0 Z " fill="#7F7171" transform="translate(188,378)"/>
<path d="M0 0 C2.33294775 -0.04241723 4.66702567 -0.04092937 7 0 C8 1 8 1 8.09765625 3.06640625 C8.08605469 3.89011719 8.07445312 4.71382813 8.0625 5.5625 C8.05347656 6.38878906 8.04445313 7.21507812 8.03515625 8.06640625 C8.02355469 8.70449219 8.01195312 9.34257812 8 10 C7.67 10 7.34 10 7 10 C7 7.36 7 4.72 7 2 C5.68 2.33 4.36 2.66 3 3 C2.67 5.31 2.34 7.62 2 10 C1.34 10 0.68 10 0 10 C0 6.7 0 3.4 0 0 Z " fill="#544141" transform="translate(338,379)"/>
<path d="M0 0 C0.33 0.66 0.66 1.32 1 2 C2.47968324 1.85950482 3.95874516 1.71245174 5.4375 1.5625 C6.26121094 1.48128906 7.08492188 1.40007812 7.93359375 1.31640625 C9.98662025 1.21069185 9.98662025 1.21069185 11 0 C12.66617115 -0.04063832 14.33388095 -0.042721 16 0 C16.33 1.32 16.66 2.64 17 4 C11.39 3.67 5.78 3.34 0 3 C0 2.01 0 1.02 0 0 Z " fill="#DBDFE5" transform="translate(313,337)"/>
<path d="M0 0 C-6.00434519 2.645357 -11.39717204 4.77231628 -18 5 C-20.2265625 4.0078125 -20.2265625 4.0078125 -22 3 C-21.20335937 2.87882812 -20.40671875 2.75765625 -19.5859375 2.6328125 C-12.95455784 1.59909943 -12.95455784 1.59909943 -6.5 -0.1875 C-3.7333449 -1.08666291 -2.70742307 -0.80878528 0 0 Z " fill="#209CF5" transform="translate(328,256)"/>
<path d="M0 0 C1.2065625 0.0309375 1.2065625 0.0309375 2.4375 0.0625 C2.7675 0.7225 3.0975 1.3825 3.4375 2.0625 C1.7875 2.0625 0.1375 2.0625 -1.5625 2.0625 C-1.5625 2.7225 -1.5625 3.3825 -1.5625 4.0625 C0.0875 4.3925 1.7375 4.7225 3.4375 5.0625 C3.1075 6.7125 2.7775 8.3625 2.4375 10.0625 C0.7875 10.0625 -0.8625 10.0625 -2.5625 10.0625 C-2.8925 9.4025 -3.2225 8.7425 -3.5625 8.0625 C-1.0875 8.5575 -1.0875 8.5575 1.4375 9.0625 C1.4375 8.0725 1.4375 7.0825 1.4375 6.0625 C0.1175 5.7325 -1.2025 5.4025 -2.5625 5.0625 C-3.125 3.125 -3.125 3.125 -3.5625 1.0625 C-2.5625 0.0625 -2.5625 0.0625 0 0 Z " fill="#574444" transform="translate(244.5625,378.9375)"/>
<path d="M0 0 C1.2065625 0.0309375 1.2065625 0.0309375 2.4375 0.0625 C2.7675 0.7225 3.0975 1.3825 3.4375 2.0625 C1.7875 2.0625 0.1375 2.0625 -1.5625 2.0625 C-1.5625 2.7225 -1.5625 3.3825 -1.5625 4.0625 C0.0875 4.3925 1.7375 4.7225 3.4375 5.0625 C3.1075 6.7125 2.7775 8.3625 2.4375 10.0625 C0.7875 10.0625 -0.8625 10.0625 -2.5625 10.0625 C-2.8925 9.4025 -3.2225 8.7425 -3.5625 8.0625 C-1.0875 8.5575 -1.0875 8.5575 1.4375 9.0625 C1.4375 8.0725 1.4375 7.0825 1.4375 6.0625 C0.1175 5.7325 -1.2025 5.4025 -2.5625 5.0625 C-3.125 3.125 -3.125 3.125 -3.5625 1.0625 C-2.5625 0.0625 -2.5625 0.0625 0 0 Z " fill="#574444" transform="translate(235.5625,378.9375)"/>
<path d="M0 0 C1.2065625 0.0309375 1.2065625 0.0309375 2.4375 0.0625 C2.81968767 1.71864657 3.15145102 3.38707024 3.4375 5.0625 C2.4375 6.0625 2.4375 6.0625 -0.125 6.125 C-1.3315625 6.0940625 -1.3315625 6.0940625 -2.5625 6.0625 C-2.94468767 4.40635343 -3.27645102 2.73792976 -3.5625 1.0625 C-2.5625 0.0625 -2.5625 0.0625 0 0 Z " fill="#F4F5F7" transform="translate(150.5625,335.9375)"/>
<path d="M0 0 C2.64 0 5.28 0 8 0 C8 0.33 8 0.66 8 1 C6.02 1 4.04 1 2 1 C2 2.65 2 4.3 2 6 C3.65 6 5.3 6 7 6 C7 6.33 7 6.66 7 7 C5.35 7 3.7 7 2 7 C2 8.98 2 10.96 2 13 C1.34 13 0.68 13 0 13 C0 8.71 0 4.42 0 0 Z " fill="#412B2B" transform="translate(323,376)"/>
<path d="M0 0 C1.65 0.33 3.3 0.66 5 1 C5 2.65 5 4.3 5 6 C3.125 6.625 3.125 6.625 1 7 C0.34 6.34 -0.32 5.68 -1 5 C-0.625 2.375 -0.625 2.375 0 0 Z " fill="#EEECEC" transform="translate(160,381)"/>
<path d="M0 0 C2.00720923 0.28674418 4.0085944 0.61866701 6 1 C6 1.99 6 2.98 6 4 C2.04 4 -1.92 4 -6 4 C-6.33 3.01 -6.66 2.02 -7 1 C-5.5459375 1.0309375 -5.5459375 1.0309375 -4.0625 1.0625 C-1.12534105 1.35618499 -1.12534105 1.35618499 0 0 Z " fill="#EEECEC" transform="translate(231,384)"/>
<path d="M0 0 C1.2065625 0.0309375 1.2065625 0.0309375 2.4375 0.0625 C2.7675 0.7225 3.0975 1.3825 3.4375 2.0625 C1.7875 2.0625 0.1375 2.0625 -1.5625 2.0625 C-1.5625 2.7225 -1.5625 3.3825 -1.5625 4.0625 C0.0875 4.3925 1.7375 4.7225 3.4375 5.0625 C3.1075 6.7125 2.7775 8.3625 2.4375 10.0625 C0.7875 10.0625 -0.8625 10.0625 -2.5625 10.0625 C-2.8925 9.4025 -3.2225 8.7425 -3.5625 8.0625 C-1.9125 8.0625 -0.2625 8.0625 1.4375 8.0625 C1.7675 7.4025 2.0975 6.7425 2.4375 6.0625 C0.7875 5.7325 -0.8625 5.4025 -2.5625 5.0625 C-3.125 3.125 -3.125 3.125 -3.5625 1.0625 C-2.5625 0.0625 -2.5625 0.0625 0 0 Z " fill="#513D3D" transform="translate(394.5625,378.9375)"/>
<path d="M0 0 C-0.33 1.65 -0.66 3.3 -1 5 C-2.98 5 -4.96 5 -7 5 C-7 3.68 -7 2.36 -7 1 C-4.53721199 -0.231394 -2.7204945 -0.07159196 0 0 Z " fill="#F0F2F4" transform="translate(330,346)"/>
<path d="M0 0 C1.65 0 3.3 0 5 0 C5 1.98 5 3.96 5 6 C3.0625 6.5625 3.0625 6.5625 1 7 C0 6 0 6 -0.0625 2.9375 C-0.041875 1.968125 -0.02125 0.99875 0 0 Z " fill="#F6F5F5" transform="translate(290,381)"/>
<path d="M0 0 C1.65 0 3.3 0 5 0 C5 1.98 5 3.96 5 6 C3.0625 6.5625 3.0625 6.5625 1 7 C0 6 0 6 -0.0625 2.9375 C-0.041875 1.968125 -0.02125 0.99875 0 0 Z " fill="#F6F5F5" transform="translate(264,381)"/>
<path d="M0 0 C2.31 0.33 4.62 0.66 7 1 C7 1.99 7 2.98 7 4 C4.03 4 1.06 4 -2 4 C-1.34 2.68 -0.68 1.36 0 0 Z " fill="#EFF1F4" transform="translate(419,337)"/>
<path d="M0 0 C6.16618181 -0.40214229 11.17745757 1.03181664 17 3 C16.34 3.66 15.68 4.32 15 5 C13.046875 4.828125 13.046875 4.828125 10.75 4.25 C9.95207031 4.05148437 9.15414063 3.85296875 8.33203125 3.6484375 C5.51668221 2.86561013 2.75029115 1.987284 0 1 C0 0.67 0 0.34 0 0 Z " fill="#37A6F6" transform="translate(252,255)"/>
<path d="M0 0 C0.66 0.66 1.32 1.32 2 2 C1.8185339 4.60491661 1.53723614 7.05681623 1.125 9.625 C1.02058594 10.33140625 0.91617188 11.0378125 0.80859375 11.765625 C0.54900874 13.51192414 0.27578567 15.25618599 0 17 C-1.83166003 13.91214401 -2.19090024 12.04199685 -1.6875 8.5 C-1.58824219 7.7471875 -1.48898438 6.994375 -1.38671875 6.21875 C-1.01948342 4.11178366 -0.54942434 2.06621118 0 0 Z " fill="#4CAFF7" transform="translate(187,128)"/>
<path d="M0 0 C1.65 0 3.3 0 5 0 C5.5625 1.9375 5.5625 1.9375 6 4 C5 5 5 5 2.4375 5.0625 C1.2309375 5.0315625 1.2309375 5.0315625 0 5 C0 3.35 0 1.7 0 0 Z " fill="#F1EFEF" transform="translate(109,383)"/>
<path d="M0 0 C1.98 0 3.96 0 6 0 C6 0.66 6 1.32 6 2 C5.01 2.33 4.02 2.66 3 3 C2.67 5.31 2.34 7.62 2 10 C1.34 10 0.68 10 0 10 C0 6.7 0 3.4 0 0 Z " fill="#614F4F" transform="translate(169,379)"/>
<path d="M0 0 C1.98 0 3.96 0 6 0 C6 0.66 6 1.32 6 2 C5.01 2.33 4.02 2.66 3 3 C2.67 5.31 2.34 7.62 2 10 C1.34 10 0.68 10 0 10 C0 6.7 0 3.4 0 0 Z " fill="#614F4F" transform="translate(119,379)"/>
<path d="M0 0 C1.65 0.33 3.3 0.66 5 1 C5 1.99 5 2.98 5 4 C3.02 4 1.04 4 -1 4 C-0.67 2.68 -0.34 1.36 0 0 Z " fill="#9A8E8E" transform="translate(224,379)"/>
<path d="M0 0 C0.66 0.66 1.32 1.32 2 2 C1.7578125 4.6015625 1.7578125 4.6015625 1.125 7.625 C0.81949219 9.12933594 0.81949219 9.12933594 0.5078125 10.6640625 C0.34023437 11.43492187 0.17265625 12.20578125 0 13 C-2 10 -2 10 -1.7578125 7.51953125 C-1.54898438 6.62621094 -1.34015625 5.73289063 -1.125 4.8125 C-0.92132813 3.91144531 -0.71765625 3.01039063 -0.5078125 2.08203125 C-0.34023437 1.39496094 -0.17265625 0.70789063 0 0 Z " fill="#44ACF6" transform="translate(144,164)"/>
<path d="M0 0 C0.66 0 1.32 0 2 0 C2 3.3 2 6.6 2 10 C1.01 9.67 0.02 9.34 -1 9 C-0.67 6.03 -0.34 3.06 0 0 Z " fill="#5B4848" transform="translate(306,379)"/>
<path d="M0 0 C0.33 0.66 0.66 1.32 1 2 C1.99 2.33 2.98 2.66 4 3 C3.01 3 2.02 3 1 3 C1.32960216 8.01535052 1.32960216 8.01535052 4 12 C2.68 12 1.36 12 0 12 C0 9.03 0 6.06 0 3 C-0.66 2.67 -1.32 2.34 -2 2 C-1.34 2 -0.68 2 0 2 C0 1.34 0 0.68 0 0 Z " fill="#2F1717" transform="translate(256,377)"/>
<path d="M0 0 C0.33 0.66 0.66 1.32 1 2 C1.99 2.33 2.98 2.66 4 3 C3.01 3 2.02 3 1 3 C1.32960216 8.01535052 1.32960216 8.01535052 4 12 C2.68 12 1.36 12 0 12 C0 9.03 0 6.06 0 3 C-0.66 2.67 -1.32 2.34 -2 2 C-1.34 2 -0.68 2 0 2 C0 1.34 0 0.68 0 0 Z " fill="#2F1717" transform="translate(204,377)"/>
<path d="M0 0 C0 3.92896395 -1.00299863 7.19893228 -2 11 C-2.33 11 -2.66 11 -3 11 C-3.33 9.35 -3.66 7.7 -4 6 C-5.32 5.67 -6.64 5.34 -8 5 C-7.05125 4.54625 -6.1025 4.0925 -5.125 3.625 C-1.99686321 2.19761746 -1.99686321 2.19761746 0 0 Z " fill="#A2A357" transform="translate(241,186)"/>
<path d="M0 0 C2.475 0.495 2.475 0.495 5 1 C5 1.99 5 2.98 5 4 C3.35 4 1.7 4 0 4 C0 2.68 0 1.36 0 0 Z " fill="#F1EFEF" transform="translate(109,377)"/>
<path d="M0 0 C0.33 0 0.66 0 1 0 C1 2.97 1 5.94 1 9 C-1.40921705 6.59078295 -2.53812156 4.05665491 -4 1 C-2.68 1.33 -1.36 1.66 0 2 C0 1.34 0 0.68 0 0 Z " fill="#A1A25B" transform="translate(352,75)"/>
<path d="M0 0 C1.32 0 2.64 0 4 0 C3.67 1.65 3.34 3.3 3 5 C2.01 4.67 1.02 4.34 0 4 C0 2.68 0 1.36 0 0 Z " fill="#B8B0B0" transform="translate(145,381)"/>
<path d="M0 0 C0 0.33 0 0.66 0 1 C-8.57142857 2.42857143 -8.57142857 2.42857143 -12 0 C-7.66726186 -0.92844389 -4.33273814 -0.92844389 0 0 Z " fill="#50B1F7" transform="translate(318,259)"/>
<path d="M0 0 C1.64826111 2.96687001 2.44271087 5.65626525 3 9 C2.01 9.495 2.01 9.495 1 10 C-0.83691257 6.21812119 -1.15837626 4.05431692 0 0 Z " fill="#41AAF6" transform="translate(189,182)"/>
<path d="M0 0 C0.33 0 0.66 0 1 0 C1 1.98 1 3.96 1 6 C1.66 6.33 2.32 6.66 3 7 C1.02 8.32 -0.96 9.64 -3 11 C-2.690625 10.29875 -2.38125 9.5975 -2.0625 8.875 C-0.96697322 5.91063343 -0.43577008 3.12301892 0 0 Z " fill="#979868" transform="translate(231,192)"/>
<path d="M0 0 C1.6415049 3.2830098 0.51888624 6.42545033 0 10 C-2.16695725 7.83304275 -2.73495121 7.00388632 -3 4 C-1.5625 1.75 -1.5625 1.75 0 0 Z " fill="#A2A359" transform="translate(298,172)"/>
</svg>
